<svg width="99" height="98" viewBox="0 0 99 98" fill="none" xmlns="http://www.w3.org/2000/svg">
<path d="M98.0364 48.9715C98.0364 75.8662 76.2339 97.6687 49.3392 97.6687C22.4445 97.6687 0.64209 75.8662 0.64209 48.9715C0.64209 22.0769 22.4445 0.274414 49.3392 0.274414C76.2339 0.274414 98.0364 22.0769 98.0364 48.9715ZM16.28 48.9715C16.28 67.2296 31.0811 82.0308 49.3392 82.0308C67.5973 82.0308 82.3984 67.2296 82.3984 48.9715C82.3984 30.7135 67.5973 15.9123 49.3392 15.9123C31.0811 15.9123 16.28 30.7135 16.28 48.9715Z" fill="url(#paint0_linear_11_210)"/>
<path d="M41.0089 56.386C41.8279 55.7356 42.2013 55.4344 42.129 55.4826C44.4898 53.5314 46.3447 51.9294 47.6938 50.6767C49.0669 49.4241 50.2232 48.1112 51.1627 46.7381C52.1022 45.3649 52.5719 44.028 52.5719 42.7271C52.5719 41.7394 52.3431 40.9686 51.8854 40.4145C51.4277 39.8604 50.7411 39.5834 49.8257 39.5834C48.9103 39.5834 48.1876 39.9327 47.6576 40.6313C47.1517 41.3058 46.8988 42.2694 46.8988 43.5221H40.9366C40.9848 41.4745 41.4184 39.7641 42.2374 38.391C43.0806 37.0179 44.1767 36.0061 45.5257 35.3557C46.8988 34.7052 48.4164 34.38 50.0786 34.38C52.9453 34.38 55.1013 35.1148 56.5467 36.5842C58.0162 38.0537 58.7509 39.9688 58.7509 42.3296C58.7509 44.9072 57.8717 47.3042 56.1131 49.5204C54.3546 51.7126 52.1142 53.8566 49.3921 55.9524H59.1484V60.9751H41.0089V56.386Z" fill="#374048"/>
<defs>
<linearGradient id="paint0_linear_11_210" x1="49.3392" y1="0.274414" x2="49.3392" y2="97.6687" gradientUnits="userSpaceOnUse">
<stop stop-color="#88FF7D"/>
<stop offset="1" stop-color="#34D361"/>
</linearGradient>
</defs>
</svg>
