<svg width="32" height="32" viewBox="0 0 32 32" fill="none" xmlns="http://www.w3.org/2000/svg">
<path d="M31.4425 10.5041L21.6491 0.710716C21.1187 0.22105 20.4862 0.057827 19.7517 0.22105C19.4252 0.302662 19.1192 0.465883 18.8336 0.710716C18.6295 0.955551 18.4663 1.24119 18.3439 1.56763C17.9358 2.95502 17.1605 4.22 16.018 5.36255C14.9978 6.38269 13.1412 7.66807 10.448 9.21868C7.42839 10.9733 5.3065 12.4831 4.08233 13.7481C2.49091 15.3395 1.36876 17.1554 0.715871 19.1956C0.511843 19.9302 0.675065 20.583 1.20554 21.1543L10.9989 30.9477C11.5294 31.4373 12.1618 31.6005 12.8963 31.4373C13.2228 31.3557 13.5288 31.1925 13.8145 30.9477C14.0185 30.7028 14.1817 30.4172 14.3041 30.0907C14.7122 28.6625 15.4875 27.3976 16.6301 26.2958C17.6502 25.2757 19.5068 23.9903 22.2 22.4397C25.2196 20.6851 27.3415 19.1752 28.5657 17.9103C30.1571 16.3597 31.2793 14.5438 31.9321 12.4627C32.1362 11.7282 31.973 11.0753 31.4425 10.5041ZM12.4067 29.5399C11.6722 28.8054 10.6418 27.775 9.31565 26.4488C7.98947 25.1227 6.7857 23.9189 5.70435 22.8375C4.62301 21.7562 3.59267 20.7259 2.61333 19.7465C3.1438 18.1143 4.02112 16.6555 5.24529 15.3701C6.46946 14.0847 7.80584 13.0238 9.25444 12.1873C10.703 11.3508 12.1516 10.5143 13.6002 9.67775C15.0488 8.84123 16.3954 7.78028 17.64 6.49491C18.8846 5.20953 19.7517 3.75073 20.2413 2.11851C21.3023 3.17945 22.9243 4.80148 25.1074 6.98458C27.2905 9.16768 28.9329 10.8101 30.0347 11.9119C29.545 13.5441 28.6779 15.0029 27.4333 16.2883C26.1888 17.5736 24.8422 18.6346 23.3936 19.4711C21.945 20.3076 20.4964 21.1441 19.0478 21.9806C17.5992 22.8171 16.2628 23.8781 15.0386 25.1635C13.8145 26.4488 12.9371 27.9076 12.4067 29.5399ZM19.8129 14.7274C19.4864 14.4826 19.16 14.3092 18.8336 14.2072C18.5071 14.1052 18.1807 14.0745 17.8542 14.1154C17.5278 14.1562 17.2013 14.2378 16.8749 14.3602C16.5076 14.4826 16.1812 14.6254 15.8956 14.7886C15.2427 14.0133 14.7122 13.4217 14.3041 13.0136C14.549 12.8096 14.7836 12.6974 15.008 12.677C15.2325 12.6566 15.4467 12.6872 15.6507 12.7688C15.8956 12.8096 16.0792 12.8504 16.2016 12.8912C16.4056 12.932 16.5688 12.8912 16.6913 12.7688C16.8545 12.6464 16.9361 12.4831 16.9361 12.2791C16.9361 12.0751 16.8545 11.8914 16.6913 11.7282C16.4872 11.4834 16.2322 11.3304 15.9262 11.2692C15.6201 11.208 15.3141 11.2182 15.008 11.2998C14.702 11.3814 14.4163 11.5038 14.1511 11.667C13.8859 11.8302 13.6716 11.9935 13.5084 12.1567C13.4268 12.1159 13.3452 12.0547 13.2636 11.9731C13.2228 11.8914 13.1514 11.8506 13.0494 11.8506C12.9473 11.8506 12.8555 11.9016 12.7739 12.0037C12.6923 12.1057 12.6515 12.2077 12.6515 12.3097C12.6515 12.4117 12.6923 12.4831 12.7739 12.5239C12.8963 12.6055 12.9575 12.6668 12.9575 12.7076C12.7127 12.9932 12.5087 13.3196 12.3455 13.6869C12.1822 14.0133 12.0802 14.3602 12.0394 14.7274C11.9986 15.0539 12.0394 15.3599 12.1618 15.6456C12.2843 15.9312 12.4883 16.1964 12.7739 16.4413C13.2228 16.8085 13.7533 16.9717 14.3653 16.9309C15.059 16.8901 15.7323 16.6861 16.3852 16.3189C17.1197 17.1758 17.7114 17.8287 18.1603 18.2775C17.9154 18.4816 17.7012 18.604 17.5176 18.6448C17.3339 18.6856 17.1605 18.6856 16.9973 18.6448C16.8341 18.604 16.6913 18.5326 16.5688 18.4305C16.4464 18.3285 16.3138 18.2469 16.171 18.1857C16.0282 18.1245 15.8956 18.0939 15.7731 18.0939C15.6507 18.0939 15.5079 18.1653 15.3447 18.3081C15.1815 18.4509 15.0998 18.6142 15.0998 18.7978C15.0998 18.9814 15.1815 19.165 15.3447 19.3487C15.5079 19.5323 15.7221 19.6853 15.9874 19.8077C16.2526 19.9302 16.5484 20.0118 16.8749 20.0526C17.2421 20.0526 17.589 19.9914 17.9154 19.8689C18.2827 19.7465 18.6499 19.5017 19.0172 19.1344C19.1396 19.2977 19.3028 19.4609 19.5068 19.6241C19.5885 19.7057 19.6803 19.7363 19.7823 19.7159C19.8843 19.6955 19.9761 19.6445 20.0577 19.5629C20.1393 19.4813 20.1699 19.3895 20.1495 19.2875C20.1291 19.1854 20.0781 19.114 19.9965 19.0732C19.8333 18.91 19.6701 18.7672 19.5068 18.6448C19.7925 18.2775 20.0169 17.8899 20.1801 17.4818C20.3842 17.1146 20.4862 16.7677 20.4862 16.4413C20.527 16.1148 20.5066 15.8088 20.425 15.5231C20.3026 15.2375 20.0985 14.9723 19.8129 14.7274ZM15.3447 15.0947C14.9366 15.2987 14.6 15.4109 14.3347 15.4313C14.0695 15.4517 13.8349 15.3599 13.6308 15.1559C13.5084 15.0743 13.4268 14.9621 13.386 14.8193C13.3452 14.6764 13.335 14.5336 13.3554 14.3908C13.3758 14.248 13.4268 14.1052 13.5084 13.9623C13.59 13.8195 13.692 13.6665 13.8145 13.5033C14.2225 13.9113 14.7326 14.4418 15.3447 15.0947ZM19.1396 16.8697C19.1396 16.8697 19.1294 16.9105 19.109 16.9921C19.0886 17.0738 19.0376 17.1962 18.956 17.3594C18.8744 17.5226 18.7723 17.6654 18.6499 17.7879C18.2011 17.339 17.6502 16.7473 16.9973 16.0128C17.2013 15.9312 17.3442 15.87 17.4258 15.8292C17.589 15.7476 17.7522 15.6966 17.9154 15.6762C18.0787 15.6558 18.2419 15.666 18.4051 15.7068C18.5683 15.7476 18.7213 15.8394 18.8642 15.9822C19.007 16.125 19.0988 16.2678 19.1396 16.4107C19.1804 16.5535 19.1804 16.7065 19.1396 16.8697ZM15.0386 21.8888C15.2835 21.6848 15.5079 21.6848 15.7119 21.8888C15.9568 22.1337 15.9568 22.3785 15.7119 22.6233C15.7119 22.6233 15.6915 22.6233 15.6507 22.6233C14.9978 23.1538 14.447 23.6435 13.9981 24.0923C13.5084 24.582 13.0596 25.0921 12.6515 25.6225L12.0394 26.4794C11.9986 26.5203 11.9782 26.5611 11.9782 26.6019C11.7334 26.8467 11.4885 26.8467 11.2437 26.6019C11.0805 26.3978 11.0601 26.1938 11.1825 25.9898L11.8558 25.0717C12.3047 24.5004 12.7943 23.9495 13.3248 23.419C13.7737 22.9294 14.3449 22.4193 15.0386 21.8888ZM18.6499 7.68847C19.1396 7.19881 19.5885 6.68874 19.9965 6.15826L20.6086 5.30135C20.6494 5.21973 20.6902 5.17893 20.731 5.17893C20.9758 4.9341 21.2003 4.9341 21.4043 5.17893C21.6083 5.38296 21.6287 5.60739 21.4655 5.85222L20.7922 6.77035C20.3434 7.34163 19.8537 7.8925 19.3232 8.42297C18.8744 8.91264 18.3031 9.42271 17.6094 9.95318C17.3646 10.1572 17.1197 10.1368 16.8749 9.89198C16.6709 9.68795 16.6709 9.46352 16.8749 9.21868C16.9157 9.17788 16.9565 9.15747 16.9973 9.15747C17.6502 8.627 18.2011 8.13733 18.6499 7.68847Z" fill="#0084FF"/>
</svg>
