<svg width="30" height="30" viewBox="0 0 30 30" fill="none" xmlns="http://www.w3.org/2000/svg">
<path d="M26.726 3.30964C26.726 3.30964 26.2812 2.86487 25.3917 1.97531C24.5021 1.08576 22.8082 0.640978 20.3098 0.640978C17.8115 0.640978 15.6728 1.53053 13.8937 3.30964C12.1146 5.08875 11.225 7.22747 11.225 9.7258C11.225 10.8235 11.4332 11.9213 11.8496 13.019L0.834263 24.0344C0.493583 24.4129 0.323242 24.7915 0.323242 25.17V27.8954C0.323242 28.3875 0.503046 28.8134 0.862653 29.173C1.22226 29.5326 1.64811 29.7124 2.14021 29.7124H4.86565C5.28204 29.7124 5.66057 29.5421 6.00125 29.2014L7.3072 27.8954H9.40806C9.90016 27.8954 10.326 27.7156 10.6856 27.356C11.0452 26.9964 11.225 26.5706 11.225 26.0785V24.2615H13.042C13.5341 24.2615 13.9599 24.0817 14.3195 23.7221C14.6792 23.3625 14.859 22.9366 14.859 22.4445V20.2869L17.0166 18.186C18.1143 18.6024 19.2121 18.8106 20.3098 18.8106C22.8082 18.8106 24.9469 17.9211 26.726 16.142C28.5051 14.3628 29.3947 12.2241 29.3947 9.7258C29.3947 7.22747 28.5051 5.08875 26.726 3.30964ZM20.3098 16.9937C19.0228 16.9937 17.7926 16.653 16.6191 15.9716L16.3352 16.2555L15.3132 17.2776L13.553 19.0377C13.2123 19.3784 13.042 19.7948 13.042 20.2869V22.4445H11.225C10.7329 22.4445 10.3071 22.6244 9.94747 22.984C9.58787 23.3436 9.40806 23.7694 9.40806 24.2615V26.0785H7.3072C6.77725 26.0785 6.34194 26.2488 6.00125 26.5895L4.69531 27.8954H2.14021V25.2836L12.7581 14.7224L14.064 13.4165C13.3827 12.243 13.042 11.0128 13.042 9.7258C13.042 7.71957 13.7517 6.0067 15.1712 4.5872C16.5907 3.16769 18.3036 2.45794 20.3098 2.45794C22.3161 2.45794 24.0289 3.16769 25.4484 4.5872C26.868 6.0067 27.5777 7.71957 27.5777 9.7258C27.5777 11.732 26.868 13.4449 25.4484 14.8644C24.0289 16.2839 22.3161 16.9937 20.3098 16.9937ZM25.5904 8.13595C24.5684 6.69753 23.3381 5.46729 21.8997 4.44525C21.6726 4.25598 21.4076 4.21813 21.1048 4.33169C19.8556 4.78593 19.0039 5.63763 18.5497 6.88679C18.5118 7.00035 18.4929 7.09499 18.4929 7.17069C18.4929 7.35996 18.5497 7.5303 18.6632 7.68171C19.6853 9.12014 20.9155 10.3504 22.3539 11.3724C22.5811 11.5617 22.846 11.5995 23.1489 11.486C24.398 11.0317 25.2497 10.18 25.704 8.93088C25.7418 8.81732 25.7607 8.72268 25.7607 8.64698C25.7607 8.45771 25.704 8.28737 25.5904 8.13595ZM22.865 10.6343C21.5401 9.68794 20.3856 8.53341 19.4014 7.17069C19.742 6.1865 20.4045 5.52407 21.3887 5.18339C22.7514 6.16758 23.9059 7.32211 24.8523 8.64698C24.5116 9.63116 23.8491 10.2936 22.865 10.6343Z" fill="#0084FF"/>
</svg>
