<svg width="31" height="31" viewBox="0 0 31 31" fill="none" xmlns="http://www.w3.org/2000/svg">
<path d="M15.5 29C22.9558 29 29 22.9558 29 15.5C29 8.04415 22.9558 2 15.5 2C8.04415 2 2 8.04415 2 15.5C2 22.9558 8.04415 29 15.5 29Z" stroke="#0084FF" stroke-width="2.025" stroke-linecap="round" stroke-linejoin="round"/>
<path d="M2.6748 16.1749L10.0998 18.8749L8.7498 23.5999L10.0998 27.6499" stroke="#0084FF" stroke-width="2.025" stroke-linecap="round" stroke-linejoin="round"/>
<path d="M22.2497 26.9749L21.5747 23.5999L18.1997 22.2499V17.5249L22.2497 16.1749L28.3247 16.8499" stroke="#0084FF" stroke-width="2.025" stroke-linecap="round" stroke-linejoin="round"/>
<path d="M24.9503 6.72498L24.2753 8.74998L19.5503 9.42498V13.475L22.9253 12.125H25.6253L28.3253 13.475" stroke="#0084FF" stroke-width="2.025" stroke-linecap="round" stroke-linejoin="round"/>
<path d="M2.6748 13.475L6.0498 10.775L9.4248 10.1L12.1248 6.04998L10.7748 3.34998" stroke="#0084FF" stroke-width="2.025" stroke-linecap="round" stroke-linejoin="round"/>
</svg>
