<svg width="98" height="98" viewBox="0 0 98 98" fill="none" xmlns="http://www.w3.org/2000/svg">
<path d="M97.49 49.2902C97.49 76.1848 75.6875 97.9873 48.7928 97.9873C21.8982 97.9873 0.0957031 76.1848 0.0957031 49.2902C0.0957031 22.3955 21.8982 0.593018 48.7928 0.593018C75.6875 0.593018 97.49 22.3955 97.49 49.2902ZM15.7336 49.2902C15.7336 67.5482 30.5347 82.3494 48.7928 82.3494C67.0509 82.3494 81.8521 67.5482 81.8521 49.2902C81.8521 31.0321 67.0509 16.2309 48.7928 16.2309C30.5347 16.2309 15.7336 31.0321 15.7336 49.2902Z" fill="url(#paint0_linear_11_209)"/>
<path d="M41.8425 41.0219V35.2765H51.8518V61.6548H45.4199V41.0219H41.8425Z" fill="#374048"/>
<defs>
<linearGradient id="paint0_linear_11_209" x1="48.7928" y1="0.593018" x2="48.7928" y2="97.9873" gradientUnits="userSpaceOnUse">
<stop stop-color="#88FF7D"/>
<stop offset="1" stop-color="#34D361"/>
</linearGradient>
</defs>
</svg>
