<svg width="98" height="98" viewBox="0 0 98 98" fill="none" xmlns="http://www.w3.org/2000/svg">
<path d="M97.49 49.1639C97.49 76.0586 75.6875 97.8611 48.7928 97.8611C21.8982 97.8611 0.0957031 76.0586 0.0957031 49.1639C0.0957031 22.2692 21.8982 0.466797 48.7928 0.466797C75.6875 0.466797 97.49 22.2692 97.49 49.1639ZM15.7336 49.1639C15.7336 67.422 30.5347 82.2231 48.7928 82.2231C67.0509 82.2231 81.8521 67.422 81.8521 49.1639C81.8521 30.9058 67.0509 16.1047 48.7928 16.1047C30.5347 16.1047 15.7336 30.9058 15.7336 49.1639Z" fill="url(#paint0_linear_11_220)"/>
<path d="M39.9225 42.5943C40.0188 40.0167 40.862 38.0293 42.4519 36.6321C44.0418 35.2349 46.1978 34.5363 48.92 34.5363C50.7267 34.5363 52.2684 34.8494 53.5452 35.4758C54.846 36.1021 55.8217 36.9573 56.4721 38.0413C57.1466 39.1254 57.4839 40.3419 57.4839 41.6909C57.4839 43.2808 57.0864 44.5817 56.2914 45.5935C55.4965 46.5811 54.569 47.2557 53.5091 47.617V47.7615C54.8822 48.2192 55.9662 48.9781 56.7612 50.038C57.5561 51.098 57.9536 52.459 57.9536 54.1212C57.9536 55.6148 57.6043 56.9397 56.9057 58.096C56.2312 59.2282 55.2315 60.1196 53.9065 60.77C52.6057 61.4204 51.0519 61.7456 49.2452 61.7456C46.3544 61.7456 44.0418 61.035 42.3073 59.6137C40.597 58.1924 39.6936 56.0484 39.5972 53.1817H45.5956C45.6197 54.2417 45.9208 55.0848 46.4989 55.7111C47.0771 56.3134 47.9202 56.6145 49.0284 56.6145C49.9679 56.6145 50.6906 56.3495 51.1964 55.8195C51.7264 55.2655 51.9914 54.5428 51.9914 53.6515C51.9914 52.4952 51.618 51.6641 50.8712 51.1582C50.1485 50.6282 48.9802 50.3632 47.3662 50.3632H46.2099V45.3405H47.3662C48.5948 45.3405 49.5824 45.1358 50.3292 44.7262C51.1001 44.2926 51.4855 43.5338 51.4855 42.4498C51.4855 41.5825 51.2446 40.908 50.7628 40.4262C50.281 39.9444 49.6186 39.7035 48.7754 39.7035C47.86 39.7035 47.1735 39.9806 46.7158 40.5346C46.2821 41.0887 46.0292 41.7752 45.9569 42.5943H39.9225Z" fill="#374048"/>
<defs>
<linearGradient id="paint0_linear_11_220" x1="48.7928" y1="0.466797" x2="48.7928" y2="97.8611" gradientUnits="userSpaceOnUse">
<stop stop-color="#88FF7D"/>
<stop offset="1" stop-color="#34D361"/>
</linearGradient>
</defs>
</svg>
