<svg width="30" height="30" viewBox="0 0 30 30" fill="none" xmlns="http://www.w3.org/2000/svg">
<path d="M26.5446 9.53905C25.9768 9.38763 23.4028 9.25515 18.8225 9.14159C18.974 8.42237 19.0497 7.41926 19.0497 6.13224C19.0497 4.5424 18.5765 3.12289 17.6302 1.87373C16.6838 0.624569 15.6618 -1.33514e-05 14.564 -1.33514e-05C13.807 -1.33514e-05 13.1635 0.264961 12.6335 0.794909C12.1036 1.32486 11.8386 1.96836 11.8386 2.72543C11.8007 5.86727 10.5894 8.06277 8.20466 9.31193C7.78827 9.50119 7.46652 9.65261 7.2394 9.76617L7.29618 9.82295C6.72837 9.33085 6.12272 9.08481 5.47921 9.08481H2.75377C1.9967 9.08481 1.35319 9.34978 0.823242 9.87973C0.293294 10.4097 0.0283203 11.0532 0.0283203 11.8103V26.346C0.0283203 27.103 0.293294 27.7465 0.823242 28.2765C1.35319 28.8064 1.9967 29.0714 2.75377 29.0714H5.47921C6.57696 29.0714 7.39081 28.5415 7.92076 27.4816C7.92076 27.5194 7.92076 27.5383 7.92076 27.5383C7.95861 27.5383 8.00593 27.5383 8.06271 27.5383C8.11949 27.5383 8.14788 27.5573 8.14788 27.5951C8.14788 27.5951 8.16681 27.5951 8.20466 27.5951C8.88602 27.7465 10.1163 28.0304 11.8954 28.4468C13.7123 28.8632 15.5104 29.0714 17.2895 29.0714H22.2861C23.8003 29.0714 24.8791 28.4847 25.5226 27.3112C25.674 27.0084 25.8065 26.6866 25.9201 26.346C26.0715 25.816 26.0715 25.2861 25.9201 24.7561C26.6014 24.3019 27.1124 23.507 27.4531 22.3714C27.7559 21.4629 27.7559 20.649 27.4531 19.9298C28.0966 19.3242 28.4941 18.4914 28.6455 17.4315C28.7591 16.6366 28.6455 15.9173 28.3048 15.2738C28.7969 14.706 29.0619 14.0436 29.0997 13.2865V13.0594C29.0997 12.9459 29.0997 12.7944 29.0997 12.6052C29.0997 11.9995 28.8821 11.3939 28.4468 10.7882C28.0115 10.1826 27.3774 9.76617 26.5446 9.53905ZM6.38769 26.346C6.38769 26.6109 6.30252 26.8286 6.13218 26.9989C5.96184 27.1693 5.74419 27.2544 5.47921 27.2544H2.75377C2.48879 27.2544 2.27114 27.1693 2.10079 26.9989C1.93045 26.8286 1.84528 26.6109 1.84528 26.346V11.8103C1.84528 11.5453 1.93045 11.3276 2.10079 11.1573C2.27114 10.9869 2.48879 10.9018 2.75377 10.9018H5.47921C5.74419 10.9018 5.96184 10.9869 6.13218 11.1573C6.30252 11.3276 6.38769 11.5453 6.38769 11.8103V26.346ZM27.2828 13.2298C27.2449 14.1004 26.6393 14.5357 25.4658 14.5357H23.6489C23.346 14.5357 23.1946 14.6871 23.1946 14.9899C23.1946 15.2928 23.346 15.4442 23.6489 15.4442H25.409C26.0147 15.4442 26.4216 15.624 26.6298 15.9836C26.838 16.3432 26.9232 16.7312 26.8853 17.1476C26.6582 18.4346 25.9958 19.0781 24.898 19.0781H22.7404C22.4375 19.0781 22.2861 19.2295 22.2861 19.5323C22.2861 19.8352 22.4375 19.9866 22.7404 19.9866H24.5573C25.7308 19.9866 26.1093 20.6112 25.6929 21.8603C25.5794 22.2767 25.4753 22.5701 25.3806 22.7404C25.286 22.9108 25.0684 23.1 24.7277 23.3082C24.387 23.5164 23.9138 23.6205 23.3082 23.6205H21.8319C21.5291 23.6205 21.3776 23.7719 21.3776 24.0748C21.3776 24.3776 21.5291 24.529 21.8319 24.529H23.2514C23.6678 24.529 23.9517 24.6804 24.1031 24.9832C24.2545 25.2861 24.2734 25.551 24.1599 25.7782C24.122 25.9296 24.0463 26.1567 23.9328 26.4595C23.6299 26.9895 23.0811 27.2544 22.2861 27.2544H17.2895C15.6618 27.2544 13.9962 27.0652 12.2928 26.6866C9.90806 26.1188 8.50749 25.7782 8.0911 25.6646C7.56115 25.5889 7.29618 25.3239 7.29618 24.8697V12.3213C7.29618 11.8292 7.54222 11.5074 8.03432 11.356C8.03432 11.356 8.05324 11.3465 8.0911 11.3276C8.12895 11.3087 8.16681 11.2992 8.20466 11.2992C10.0973 10.5043 11.4695 9.32139 12.3212 7.75047C13.1729 6.17956 13.6177 4.50454 13.6556 2.72543C13.6556 2.11978 13.9584 1.81695 14.564 1.81695C15.094 1.81695 15.6712 2.26173 16.2958 3.15128C16.9204 4.04084 17.2327 5.03449 17.2327 6.13224C17.2327 7.19214 17.1854 7.96813 17.0907 8.46023C16.9961 8.95232 16.7595 9.76617 16.381 10.9018C22.059 10.9018 25.3333 11.0153 26.204 11.2425C26.9232 11.4317 27.2828 11.886 27.2828 12.6052C27.2828 12.643 27.2828 12.8512 27.2828 13.2298ZM5.08175 24.018C5.08175 24.018 5.01551 23.9517 4.88302 23.8192C4.75053 23.6868 4.49502 23.6205 4.11649 23.6205C3.73796 23.6205 3.4162 23.753 3.15123 24.018C2.88625 24.283 2.75377 24.6047 2.75377 24.9832C2.75377 25.3618 2.88625 25.6835 3.15123 25.9485C3.4162 26.2135 3.73796 26.346 4.11649 26.346C4.49502 26.346 4.81678 26.2135 5.08175 25.9485C5.34673 25.6835 5.47921 25.3618 5.47921 24.9832C5.47921 24.6047 5.34673 24.283 5.08175 24.018ZM4.57073 24.9832C4.57073 24.9832 4.57073 25.0589 4.57073 25.2104C4.57073 25.3618 4.41932 25.4375 4.11649 25.4375C3.81366 25.4375 3.66225 25.2861 3.66225 24.9832C3.66225 24.6804 3.81366 24.529 4.11649 24.529C4.41932 24.529 4.57073 24.6804 4.57073 24.9832Z" fill="#0084FF"/>
</svg>
